<?xml version="1.0" encoding="UTF-8"?>
<svg xmlns="http://www.w3.org/2000/svg" viewBox="0 0 1000 1000">
  <defs>
    <style>
      .cls-1 {
        fill: #1d1d1b;
      }
    </style>
  </defs>
  <g id="Ebene_2" data-name="Ebene 2">
    <path class="cls-1" d="m280.63,380.44h36v177.78h-27.98c-4.43,0-8.02-3.59-8.02-8.02v-169.76h0Z"/>
    <path class="cls-1" d="m234.63,380.44h36v103.19c0,4.44-3.6,8.04-8.04,8.04h-27.96v-111.22h0Z"/>
    <path class="cls-1" d="m162.33,380.44h36v111.22h-28c-4.42,0-8-3.58-8-8v-103.22h0Z"/>
    <path class="cls-1" d="m234.48,559.39h-36v-97.2c0,16.99,36,16.99,36,0v97.2Z"/>
    <path class="cls-1" d="m371.3,380.44h36v169.69c0,4.47-3.63,8.09-8.09,8.09h-27.91v-177.78h0Z"/>
    <rect class="cls-1" x="316.63" y="514.89" width="54.67" height="43.33"/>
    <path class="cls-1" d="m316.63,498.67c0,18.77,54.67,18.77,54.67,0v16.22s-54.67,0-54.67,0v-16.22Z"/>
    <rect class="cls-1" x="417.3" y="380.33" width="36.15" height="177.78"/>
    <rect class="cls-1" x="515.37" y="380.33" width="36.15" height="177.78"/>
    <polygon class="cls-1" points="453.44 380.56 508.26 516.31 515.37 516.31 515.37 558.11 494.93 558.11 453.44 467.98 453.44 380.56"/>
    <path class="cls-1" d="m650.41,380.22c-49.09,0-88.89,39.79-88.89,88.88s39.8,88.89,88.89,88.89,88.89-39.79,88.89-88.89-39.8-88.88-88.89-88.88Zm0,142.66c-29.7,0-53.78-24.07-53.78-53.78s24.08-53.77,53.78-53.77,53.78,24.07,53.78,53.77-24.08,53.78-53.78,53.78Z"/>
    <path class="cls-1" d="m885.88,503.78l-18.78,55.55h-128.42c-2.31,0-4.19-1.87-4.19-4.18,0-.42.06-.83.18-1.21.04-.15.09-.28.15-.42l16.81-49.74h134.25Z"/>
    <polygon class="cls-1" points="910.32 503.78 867.1 559.33 871.65 503.78 910.32 503.78"/>
    <path class="cls-1" d="m871.65,503.78c10.67,0,10.67-24.22,0-24.22h38.67v24.22h-38.67Z"/>
    <path class="cls-1" d="m761.88,479.56h148.44c-.3-11.11-5.93-19.56-16.89-25.33h-84.07s-47.49,0-47.49,0v25.33Z"/>
    <path class="cls-1" d="m809.37,454.22c-12.95,0-12.95-20.44,0-20.44h-42.6l-4.89,5.33v15.11h47.49Z"/>
    <path class="cls-1" d="m917.43,386.48v47.3h-150.66l44.88-49.78h103.3c1.37,0,2.48,1.11,2.48,2.48Z"/>
  </g>
  <g id="Ebene_3" data-name="Ebene 3">
    <circle class="cls-1" cx="776.56" cy="590.63" r="7.7"/>
    <circle class="cls-1" cx="921.3" cy="540.85" r="7.26"/>
    <circle class="cls-1" cx="612.33" cy="590.63" r="7.7"/>
    <circle class="cls-1" cx="427.96" cy="309.89" r="10.67"/>
    <circle class="cls-1" cx="210.41" cy="345.44" r="4.89"/>
  </g>
</svg>